<mxfile host="app.diagrams.net" modified="2023-11-10T18:28:43.969Z" agent="Mozilla/5.0 (Windows NT 10.0; Win64; x64) AppleWebKit/537.36 (KHTML, like Gecko) Chrome/119.0.0.0 Safari/537.36" version="22.1.0" etag="UgyhmGn_qbJoTNNN1HBe" type="github">
  <diagram name="Strona-1" id="XK2pcHFcE9bXb14NwnMp">
    <mxGraphModel>
      <root>
        <mxCell id="0" />
        <mxCell id="1" parent="0" />
      </root>
    </mxGraphModel>
  </diagram>
</mxfile>
